<svg width="1555" height="508" viewBox="0 0 1555 508" fill="none" xmlns="http://www.w3.org/2000/svg">
<path d="M136.1 407.3C61.1002 407.3 0.200195 337.2 0.200195 250.7C0.200195 164.2 61.0002 94.1 136.1 94.1V407.3ZM179.7 407.3V250.6C179.7 164 240.5 94 315.6 94C390.7 94 451.5 164.2 451.5 250.6C451.5 337 390.7 407.2 315.6 407.2H179.7V407.3Z" fill="#EE8B60"/>
<path d="M572.558 407V101.545H681.436C705.101 101.545 724.739 105.622 740.349 113.776C756.06 121.929 767.793 133.214 775.548 147.632C783.304 161.95 787.182 178.506 787.182 197.298C787.182 215.991 783.254 232.447 775.399 246.666C767.643 260.786 755.911 271.773 740.2 279.628C724.589 287.483 704.952 291.411 681.287 291.411H598.808V251.737H677.111C692.026 251.737 704.156 249.599 713.503 245.324C722.949 241.048 729.859 234.834 734.234 226.68C738.609 218.527 740.797 208.733 740.797 197.298C740.797 185.764 738.56 175.771 734.085 167.32C729.71 158.868 722.8 152.405 713.354 147.93C704.007 143.357 691.727 141.07 676.514 141.07H618.645V407H572.558ZM723.347 269.188L798.815 407H746.315L672.338 269.188H723.347ZM935.547 411.624C912.975 411.624 893.537 406.801 877.23 397.156C861.022 387.412 848.494 373.74 839.645 356.141C830.895 338.442 826.52 317.71 826.52 293.946C826.52 270.48 830.895 249.798 839.645 231.901C848.494 214.003 860.824 200.033 876.633 189.99C892.542 179.947 911.136 174.926 932.414 174.926C945.341 174.926 957.869 177.064 970 181.339C982.13 185.615 993.018 192.327 1002.66 201.474C1012.31 210.622 1019.91 222.504 1025.48 237.121C1031.05 251.638 1033.83 269.287 1033.83 290.068V305.878H851.725V272.469H990.135C990.135 260.736 987.748 250.345 982.976 241.297C978.203 232.149 971.491 224.94 962.841 219.67C954.289 214.401 944.247 211.766 932.713 211.766C920.184 211.766 909.247 214.848 899.9 221.013C890.653 227.078 883.494 235.033 878.423 244.876C873.451 254.621 870.966 265.21 870.966 276.645V302.746C870.966 318.058 873.65 331.084 879.02 341.822C884.488 352.561 892.095 360.764 901.839 366.432C911.583 372 922.968 374.784 935.994 374.784C944.446 374.784 952.152 373.591 959.112 371.205C966.072 368.719 972.088 365.04 977.159 360.168C982.23 355.295 986.108 349.28 988.792 342.121L1031 349.727C1027.62 362.156 1021.56 373.044 1012.81 382.391C1004.15 391.638 993.267 398.847 980.142 404.017C967.116 409.088 952.251 411.624 935.547 411.624ZM1127.91 101.545V407H1083.31V101.545H1127.91ZM1187.9 407V177.909H1232.5V407H1187.9ZM1210.43 142.561C1202.67 142.561 1196.01 139.976 1190.44 134.805C1184.97 129.535 1182.24 123.271 1182.24 116.013C1182.24 108.655 1184.97 102.391 1190.44 97.2202C1196.01 91.9503 1202.67 89.3153 1210.43 89.3153C1218.18 89.3153 1224.79 91.9503 1230.26 97.2202C1235.83 102.391 1238.61 108.655 1238.61 116.013C1238.61 123.271 1235.83 129.535 1230.26 134.805C1224.79 139.976 1218.18 142.561 1210.43 142.561ZM1401.52 177.909V213.705H1272.06V177.909H1401.52ZM1307.56 407V151.361C1307.56 137.043 1310.69 125.16 1316.95 115.714C1323.22 106.169 1331.52 99.0596 1341.86 94.3864C1352.2 89.6136 1363.44 87.2273 1375.57 87.2273C1384.52 87.2273 1392.17 87.973 1398.54 89.4645C1404.9 90.8565 1409.62 92.1491 1412.71 93.3423L1402.27 129.436C1400.18 128.839 1397.49 128.143 1394.21 127.348C1390.93 126.453 1386.95 126.006 1382.28 126.006C1371.44 126.006 1363.69 128.69 1359.01 134.06C1354.44 139.429 1352.15 147.185 1352.15 157.327V407H1307.56Z" fill="#EE8B60"/>
</svg>
